{"title":"[www.McTorrents.com] The Fault in Our Stars [2014] - HDRip - x26","uid":10805452,"size":365981324,"categoryP":"video","categoryS":"hd___movies","magnet":"?xt=urn:btih:48da0e9476c82841dd97261612be1c02f7585efd&amp;dn=%5Bwww.McTorrents.com%5D+The+Fault+in+Our+Stars+%5B2014%5D+-+HDRip+-+x26&amp;tr=udp%3A%2F%2Ftracker.openbittorrent.com%3A80&amp;tr=udp%3A%2F%2Fopen.demonii.com%3A1337&amp;tr=udp%3A%2F%2Ftracker.coppersurfer.tk%3A6969&amp;tr=udp%3A%2F%2Fexodus.desync.com%3A6969","seeders":1,"leechers":0,"uploader":"inovai","files":10,"time":1408381613,"description":"Cover: \n &lt;a href=&quot;\nhttp://forum.primetimeshow.in/viewtopic.php?f=7&amp;t=590&quot; rel=&quot;nofollow&quot; target=&quot;_NEW&quot;&gt;\nhttp://forum.primetimeshow.in/viewtopic.php?f=7&amp;t=590&lt;/a&gt;\n\nGeneral Info:-\n\nComplete name : The Fault in Our Stars [2014].mkv\nFormat : Matroska\nFormat version : Version 2\nFile size : 345 MiB\nDuration : 2h 13mn\nOverall bit rate : 362 Kbps\nWriting application : Lavf51.12.1\nWriting library : Lavf51.12.1\n\nVideo\nID : 1\nFormat : AVC\nFormat/Info : Advanced Video Codec\nFormat profile : &lt;a class=&quot;__cf_email__&quot; href=&quot;/cdn-cgi/l/email-protection&quot; data-cfemail=&quot;3e7c5f4d5b5257505b7e720c100f&quot;&gt;[email&amp;#160;protected]&lt;/a&gt;&lt;script cf-hash='f9e31' type=&quot;text/javascript&quot;&gt;\n/* &lt;![CDATA[ */!function(){try{var t=&quot;currentScript&quot;in document?document.currentScript:function(){for(var t=document.getElementsByTagName(&quot;script&quot;),e=t.length;e--;)if(t[e].getAttribute(&quot;cf-hash&quot;))return t[e]}();if(t&amp;&amp;t.previousSibling){var e,r,n,i,c=t.previousSibling,a=c.getAttribute(&quot;data-cfemail&quot;);if(a){for(e=&quot;&quot;,r=parseInt(a.substr(0,2),16),n=2;a.length-n;n+=2)i=parseInt(a.substr(n,2),16)^r,e+=String.fromCharCode(i);e=document.createTextNode(e),c.parentNode.replaceChild(e,c)}}}catch(u){}}();/* ]]&gt; */&lt;/script&gt;\nFormat settings, CABAC : No\nFormat settings, ReFrames : 1 frame\nFormat settings, GOP : M=1, N=12\nCodec ID : V_MPEG4/ISO/AVC\nDuration : 2h 13mn\nBit rate : 323 Kbps\nWidth : 640 pixels\nHeight : 272 pixels\nDisplay aspect ratio : 1.85:1\nFrame rate mode : Constant\nFrame rate : 23.976 fps\nColor space : YUV\nChroma subsampling : 4:2:0\nBit depth : 8 bits\nScan type : Progressive\nBits/(Pixel*Frame) : 0.077\nStream size : 308 MiB (89%)\nDefault : Yes\nForced : No\n\nAudio\nID : 2\nFormat : AC-3\nFormat/Info : Audio Coding 3\nMode extension : CM (complete main)\nFormat settings, Endianness : Big\nCodec ID : A_AC3\nDuration : 2h 13mn\nBit rate mode : Constant\nBit rate : 32.0 Kbps\nChannel(s) : 6 channels\nChannel positions : Front: L C R, Side: L R, LFE\nSampling rate : 32.0 KHz\nBit depth : 16 bits\nCompression mode : Lossy\nStream size : 30.5 MiB (9%)\nDefault : Yes\nForced : No\n\nThanks to Team MCT for source.\n\nSeed n ENjoy!!\n\nSharing is Caring!!\n","torrent":{"xt":"urn:btih:48da0e9476c82841dd97261612be1c02f7585efd","amp;dn":"%5Bwww.McTorrents.com%5D+The+Fault+in+Our+Stars+%5B2014%5D+-+HDRip+-+x26","amp;tr":["udp%3A%2F%2Ftracker.openbittorrent.com%3A80","udp%3A%2F%2Fopen.demonii.com%3A1337","udp%3A%2F%2Ftracker.coppersurfer.tk%3A6969","udp%3A%2F%2Fexodus.desync.com%3A6969"],"infoHash":"48da0e9476c82841dd97261612be1c02f7585efd","infoHashBuffer":{"type":"Buffer","data":[72,218,14,148,118,200,40,65,221,151,38,22,18,190,28,2,247,88,94,253]},"announce":[],"urlList":[]}}